<svg xmlns="http://www.w3.org/2000/svg" width="343" height="315" viewBox="0 0 343 315">
<style>
  .fr{font-family:'Courier New',monospace;font-size:13px;fill:#c9d1d9;white-space:pre;opacity:0;animation:cyc 15s infinite}
  .fr text{white-space:pre}
  @keyframes cyc{0%{opacity:0}4%{opacity:1}29%{opacity:1}33%{opacity:0}100%{opacity:0}}
</style>
<rect width="100%" height="100%" fill="#0d1117"/>
<g class="fr" style="animation-delay:0s">
<text x="10" y="20">              _____________</text>
<text x="10" y="35">          .-~'             '~-.</text>
<text x="10" y="50">        .~'                    '~.</text>
<text x="10" y="65">       /                          \</text>
<text x="10" y="80">      |      .--~~~~~~~~--.        |</text>
<text x="10" y="95">      |    .'              '.      |</text>
<text x="10" y="110">  _.--|---/                  \---|--._</text>
<text x="10" y="125"> (________________________________...__)</text>
<text x="10" y="140">  '--.|                          |.--'</text>
<text x="10" y="155">      |    .--.          .--.    |</text>
<text x="10" y="170">      |   ( 0  )        ( 0  )   |</text>
<text x="10" y="185">      |    '--'          '--'    |</text>
<text x="10" y="200">      |             |            |</text>
<text x="10" y="215">      |   \                 /    |</text>
<text x="10" y="230">      |    '~-.________..-~'     |</text>
<text x="10" y="245">       \                        /</text>
<text x="10" y="260">        '~.                  .~'</text>
<text x="10" y="275">           '~-.__________.-~'</text>
<text x="10" y="290">              MUGIWARA  D.</text>
</g>
<g class="fr" style="animation-delay:5s">
<text x="10" y="35">    \  /   \  |  /   \  /</text>
<text x="10" y="50">     \/  \  \ | /  /  \/</text>
<text x="10" y="65">   \  \\  \\ \|/ //  //  /</text>
<text x="10" y="80">    \__\\__\\_|_//__//__/</text>
<text x="10" y="95">   ._________________________.</text>
<text x="10" y="110">   | ===== ( NINJA ) ======= |</text>
<text x="10" y="125">   '~~~~~~~~~~~~~~~~~~~~~~~~~'</text>
<text x="10" y="140">      |                   |</text>
<text x="10" y="155">      |   .--.     .--.   |</text>
<text x="10" y="170">      |  ( 0  )   ( 0  )  |</text>
<text x="10" y="185">      |   '--'     '--'   |</text>
<text x="10" y="200">      |  ///         \\\  |</text>
<text x="10" y="215">      |  ///   ___   \\\  |</text>
<text x="10" y="230">      |       \___/       |</text>
<text x="10" y="245">       \                 /</text>
<text x="10" y="260">        '~-.__________.-~'</text>
<text x="10" y="275">            DATTEBAYO!</text>
</g>
<g class="fr" style="animation-delay:10s">
<text x="10" y="35">        /\      /\      /\</text>
<text x="10" y="50">       /  \    /  \    /  \</text>
<text x="10" y="65">      / /\ \  / /\ \  / /\ \</text>
<text x="10" y="80">     / /  \ \/ /  \ \/ /  \ \</text>
<text x="10" y="95">    / / /\ \/ / /\ \/ / /\ \ \</text>
<text x="10" y="110">   |_/ /  \__/ /  \__/ /  \ \_|</text>
<text x="10" y="125">     |________________________|</text>
<text x="10" y="140">      |                    |</text>
<text x="10" y="155">      |   ____      ____   |</text>
<text x="10" y="170">      |  |    |    |    |  |</text>
<text x="10" y="185">      |  | () |    | () |  |</text>
<text x="10" y="200">      |  |____|    |____|  |</text>
<text x="10" y="215">      |          _         |</text>
<text x="10" y="230">      |    \           /   |</text>
<text x="10" y="245">      |     '~-.___.-~'    |</text>
<text x="10" y="260">       \                  /</text>
<text x="10" y="275">        '~-.___________.-~'</text>
<text x="10" y="290">            KAKAROTTO</text>
</g>
</svg>